One Flew Over the Cuckoo's Nest 1975 BluRay 1080p ac3 x264-LoNeWolf

Encoded by Tequila-Bob a.k.a. bobnjeff a.k.a.LoNeWoLf

Source - NTSC BluRay Disc.

Movie has been tested and is DXVA Compliant
 
http://www.imdb.com/title/tt0073486/

Genresrama 

Release Date:12 February 1976 

Rated:R

 8.9/10 X  Users: 8.9/10 (223,935 votes) 552 reviews | Critics: 103 reviews 
 Upon arrival at a mental institution, a brash rebel rallies the patients together to take   on the oppressive Nurse Ratched, a woman more a dictator than a nurse. 

Director: Milos Forman
Writers: Lawrence Hauben (screenplay), Bo Goldman (screenplay), and 2 more credits » 
Stars:Jack Nicholson, Louise Fletcher, Danny DeVito

Storyline
McMurphy thinks he can get out of doing work while in prison by pretending to be mad. His plan backfires when he is sent to a mental asylum. He tries to liven the place up a bit by playing card games and basketball with his fellow inmates, but the head nurse is after him at every turn.


Cast
Cast overview, first billed only: 
 Michael Berryman  ...  Ellis  
 Peter Brocco  ...  Col. Matterson  
 Dean R. Brooks  ...  Dr. Spivey  
 Alonzo Brown  ...  Miller  
 Scatman Crothers  ...  Turkle  
 Mwako Cumbuka  ...  Warren  
 Danny DeVito  ...  Martini  
 William Duell  ...  Jim Sefelt  
 Josip Elic  ...  Bancini  
 Lan Fendors  ...  Nurse Itsu  
 Louise Fletcher  ...  Nurse Ratched  
 Nathan George  ...  Washington  
 Ken Kenny  ...  Beans Garfield  
 Mel Lambert  ...  Harbor Master  
 Sydney Lassick  ...  Charley Cheswick   





Format : Matroska 
File size : 8.16 GiB 
Duration : 2h 13mn 
Overall bit rate : 8 738 Kbps 
Encoded date : UTC 2010-12-17 14:08:58 
Writing application : mkvmerge v4.4.0 ('Die Wiederkehr') built on Oct 31 2010 21:52:48 
Writing library : libebml v1.0.0 + libmatroska v1.0.0 

Video 
ID : 1 
Format : AVC 
Format/Info : Advanced Video Codec 
Format profile : High@L4.1 
Format settings, CABAC : Yes 
Format settings, ReFrames : 3 frames 
Muxing mode : Container profile=Unknown@4.1 
Codec ID : V_MPEG4/ISO/AVC 
Duration : 2h 13mn 
Bit rate : 7 873 Kbps 
Width : 1 920 pixels 
Height : 1 072 pixels 
Display aspect ratio : 16:9 
Frame rate : 23.976 fps 
Color space : YUV 
Chroma subsampling : 4:2:0 
Bit depth : 8 bits 
Scan type : Progressive 
Bits/(Pixel*Frame) : 0.160 
Stream size : 7.40 GiB (91%) 
Writing library : x264 core 98 r1649 c54c47d 
Encoding settings : cabac=1 / ref=4 / deblock=1:-3:-1 / analyse=0x3:0x113 / me=umh / subme=9 / psy=1 / psy_rd=1.00:0.15 / mixed_ref=1 / me_range=32 / chroma_me=1 / trellis=1 / 8x8dct=1 / cqm=0 / deadzone=21,11 / fast_pskip=0 / chroma_qp_offset=-3 / threads=6 / sliced_threads=0 / nr=0 / decimate=1 / interlaced=0 / constrained_intra=0 / bframes=3 / b_pyramid=1 / b_adapt=1 / b_bias=0 / direct=1 / weightb=1 / weightp=2 / keyint=250 / keyint_min=25 / scenecut=40 / intra_refresh=0 / rc_lookahead=60 / rc=2pass / mbtree=1 / bitrate=7873 / ratetol=1.0 / qcomp=0.60 / qpmin=10 / qpmax=51 / qpstep=4 / cplxblur=20.0 / qblur=0.5 / vbv_maxrate=50000 / vbv_bufsize=50000 / ip_ratio=1.40 / aq=1:1.50 / nal_hrd=none 
Language : English 

Audio 
ID : 2 
Format : AC-3 
Format/Info : Audio Coding 3 
Mode extension : CM (complete main) 
Codec ID : A_AC3 
Duration : 2h 13mn 
Bit rate mode : Constant 
Bit rate : 640 Kbps 
Channel(s) : 6 channels 
Channel positions : Front: L C R, Side: L R, LFE 
Sampling rate : 48.0 KHz 
Bit depth : 16 bits 
Stream size : 612 MiB (7%) 
Title : 3/2+1 
Language : English 

Text #1  
Language : English 
Text #2  
Language : Japanese 
Text #3 
Language : Japanese 
Text #4 
Language : French 
Text #5 
Language : German 
Text #6 
Language : Italian 
Text #7 
Language : Italian 
Text #8 
Language : Spanish 
Text #9  
Language : Dutch 
Text #10 
Language : Korean 
Text #11 
Language : Spanish 
Text #12 
Language : Portuguese 
Text #13 
Language : Danish 
Text #14 
Language : Finnish 
Text #15 
Language : Portuguese 
Text #16 
Language : Swedish 
Text #17 
Language : Korean 
Text #18 
Language : Norwegian 

Menu & 32 Chapters


See the full size 1920x1072 PNG files at the link below
 
http://s1015.photobucket.com/albums/af279/tequila-bob/OneFlewOvertheCuckoosNest1975/

